<svg xmlns="http://www.w3.org/2000/svg" xmlns:xlink="http://www.w3.org/1999/xlink" width="500" zoomAndPan="magnify" viewBox="0 0 375 374.999991" height="500" preserveAspectRatio="xMidYMid meet" version="1.2"><g id="6e26eacdfc"><path style=" stroke:none;fill-rule:evenodd;fill:#9195b1;fill-opacity:1;" d="M 308.988281 26.355469 L 66.011719 26.355469 L 66.011719 110.332031 C 96.390625 114.15625 119.175781 140.003906 119.160156 170.621094 L 119.160156 200.996094 L 255.84375 200.996094 L 255.84375 170.621094 C 255.832031 140.003906 278.617188 114.167969 308.992188 110.347656 Z M 20.453125 170.617188 L 20.453125 284.515625 L 75.972656 284.515625 L 59.058594 340.898438 L 88.15625 349.605469 L 107.679688 284.511719 L 267.320312 284.511719 L 286.84375 349.605469 L 315.941406 340.898438 L 299.027344 284.515625 L 354.542969 284.515625 L 354.542969 170.617188 C 354.492188 141.386719 322.8125 123.183594 297.535156 137.84375 C 285.84375 144.621094 278.636719 157.097656 278.613281 170.617188 L 278.613281 223.765625 L 96.386719 223.765625 L 96.386719 170.617188 C 96.332031 141.386719 64.652344 123.183594 39.375 137.84375 C 27.683594 144.621094 20.476562 157.097656 20.453125 170.617188 Z M 20.453125 170.617188 "/></g></svg>