<svg xmlns="http://www.w3.org/2000/svg" xmlns:xlink="http://www.w3.org/1999/xlink" width="500" zoomAndPan="magnify" viewBox="0 0 375 374.999991" height="500" preserveAspectRatio="xMidYMid meet" version="1.2"><g id="2eb7535e3b"><path style=" stroke:none;fill-rule:evenodd;fill:#000000;fill-opacity:1;" d="M 308.988281 26.375 L 66.011719 26.375 L 66.011719 110.375 C 96.390625 114.195312 119.175781 140.050781 119.160156 170.675781 L 119.160156 201.0625 L 255.84375 201.0625 L 255.84375 170.675781 C 255.832031 140.050781 278.617188 114.210938 308.992188 110.386719 Z M 20.453125 170.671875 L 20.453125 284.601562 L 75.972656 284.601562 L 59.058594 341 L 88.15625 349.714844 L 107.679688 284.601562 L 267.320312 284.601562 L 286.84375 349.714844 L 315.941406 341 L 299.027344 284.601562 L 354.542969 284.601562 L 354.542969 170.671875 C 354.492188 141.433594 322.8125 123.226562 297.535156 137.890625 C 285.84375 144.671875 278.636719 157.152344 278.613281 170.671875 L 278.613281 223.835938 L 96.386719 223.835938 L 96.386719 170.671875 C 96.332031 141.433594 64.652344 123.226562 39.375 137.890625 C 27.683594 144.671875 20.476562 157.152344 20.453125 170.671875 Z M 20.453125 170.671875 "/></g></svg>