<svg xmlns="http://www.w3.org/2000/svg" xmlns:xlink="http://www.w3.org/1999/xlink" width="500" zoomAndPan="magnify" viewBox="0 0 375 374.999991" height="500" preserveAspectRatio="xMidYMid meet" version="1.0"><defs><clipPath id="c88debf579"><path d="M 59 20.410156 L 316 20.410156 L 316 349 L 59 349 Z M 59 20.410156 " clip-rule="nonzero"/></clipPath></defs><g clip-path="url(#c88debf579)"><path fill="#000000" d="M 187.660156 20.410156 C 186.257812 20.410156 184.863281 20.476562 183.46875 20.617188 C 182.074219 20.753906 180.691406 20.957031 179.320312 21.230469 C 177.945312 21.503906 176.589844 21.84375 175.25 22.25 C 173.910156 22.65625 172.59375 23.128906 171.300781 23.664062 C 170.007812 24.199219 168.742188 24.796875 167.507812 25.457031 C 166.273438 26.117188 165.074219 26.835938 163.910156 27.613281 C 162.746094 28.390625 161.621094 29.226562 160.539062 30.113281 C 159.457031 31 158.421875 31.941406 157.429688 32.929688 C 156.441406 33.921875 155.5 34.957031 154.613281 36.039062 C 153.726562 37.121094 152.890625 38.246094 152.113281 39.410156 C 151.335938 40.574219 150.617188 41.773438 149.957031 43.007812 C 149.296875 44.242188 148.699219 45.507812 148.164062 46.800781 C 147.628906 48.09375 147.15625 49.410156 146.75 50.75 C 146.34375 52.089844 146.003906 53.445312 145.730469 54.820312 C 145.457031 56.191406 145.253906 57.574219 145.117188 58.96875 C 144.976562 60.363281 144.910156 61.757812 144.910156 63.160156 L 93.609375 63.160156 C 92.488281 63.160156 91.371094 63.214844 90.257812 63.324219 C 89.140625 63.433594 88.035156 63.597656 86.9375 63.816406 C 85.839844 64.035156 84.753906 64.308594 83.683594 64.632812 C 82.609375 64.957031 81.554688 65.335938 80.523438 65.761719 C 79.488281 66.191406 78.476562 66.667969 77.488281 67.199219 C 76.5 67.726562 75.539062 68.300781 74.609375 68.921875 C 73.675781 69.546875 72.777344 70.210938 71.914062 70.921875 C 71.046875 71.632812 70.21875 72.382812 69.425781 73.175781 C 68.632812 73.96875 67.882812 74.796875 67.171875 75.664062 C 66.460938 76.527344 65.796875 77.425781 65.171875 78.359375 C 64.550781 79.289062 63.976562 80.25 63.449219 81.238281 C 62.917969 82.226562 62.441406 83.238281 62.011719 84.273438 C 61.585938 85.304688 61.207031 86.359375 60.882812 87.433594 C 60.558594 88.503906 60.285156 89.589844 60.066406 90.6875 C 59.847656 91.785156 59.683594 92.890625 59.574219 94.007812 C 59.464844 95.121094 59.410156 96.238281 59.410156 97.359375 L 59.410156 313.960938 C 59.410156 315.078125 59.464844 316.195312 59.574219 317.3125 C 59.683594 318.425781 59.847656 319.53125 60.066406 320.632812 C 60.285156 321.730469 60.558594 322.816406 60.882812 323.886719 C 61.207031 324.960938 61.585938 326.011719 62.011719 327.046875 C 62.441406 328.082031 62.917969 329.09375 63.449219 330.082031 C 63.976562 331.070312 64.550781 332.027344 65.171875 332.960938 C 65.796875 333.890625 66.460938 334.789062 67.171875 335.65625 C 67.882812 336.523438 68.632812 337.351562 69.425781 338.140625 C 70.21875 338.933594 71.046875 339.6875 71.914062 340.394531 C 72.777344 341.105469 73.675781 341.773438 74.609375 342.394531 C 75.539062 343.019531 76.5 343.59375 77.488281 344.121094 C 78.476562 344.648438 79.488281 345.128906 80.523438 345.554688 C 81.554688 345.984375 82.609375 346.363281 83.683594 346.6875 C 84.753906 347.011719 85.839844 347.285156 86.9375 347.503906 C 88.035156 347.722656 89.140625 347.886719 90.257812 347.996094 C 91.371094 348.105469 92.488281 348.160156 93.609375 348.160156 L 281.710938 348.160156 C 282.828125 348.160156 283.945312 348.105469 285.0625 347.996094 C 286.175781 347.886719 287.28125 347.722656 288.382812 347.503906 C 289.480469 347.285156 290.566406 347.011719 291.636719 346.6875 C 292.707031 346.363281 293.761719 345.984375 294.796875 345.554688 C 295.832031 345.128906 296.84375 344.648438 297.832031 344.121094 C 298.820312 343.59375 299.777344 343.019531 300.710938 342.394531 C 301.640625 341.773438 302.539062 341.105469 303.40625 340.394531 C 304.269531 339.6875 305.101562 338.933594 305.890625 338.140625 C 306.683594 337.351562 307.4375 336.523438 308.144531 335.65625 C 308.855469 334.789062 309.523438 333.890625 310.144531 332.960938 C 310.769531 332.027344 311.34375 331.070312 311.871094 330.082031 C 312.398438 329.09375 312.878906 328.082031 313.304688 327.046875 C 313.734375 326.011719 314.113281 324.960938 314.4375 323.886719 C 314.761719 322.816406 315.035156 321.730469 315.253906 320.632812 C 315.472656 319.53125 315.636719 318.425781 315.746094 317.3125 C 315.855469 316.195312 315.910156 315.078125 315.910156 313.960938 L 315.910156 97.359375 C 315.910156 96.238281 315.855469 95.121094 315.746094 94.007812 C 315.636719 92.890625 315.472656 91.785156 315.253906 90.6875 C 315.035156 89.589844 314.761719 88.503906 314.4375 87.433594 C 314.113281 86.359375 313.734375 85.304688 313.304688 84.273438 C 312.878906 83.238281 312.398438 82.226562 311.871094 81.238281 C 311.34375 80.25 310.769531 79.289062 310.144531 78.359375 C 309.523438 77.425781 308.855469 76.527344 308.144531 75.664062 C 307.4375 74.796875 306.683594 73.96875 305.890625 73.175781 C 305.101562 72.382812 304.269531 71.632812 303.40625 70.921875 C 302.539062 70.210938 301.640625 69.546875 300.710938 68.921875 C 299.777344 68.300781 298.820312 67.726562 297.832031 67.199219 C 296.84375 66.667969 295.832031 66.191406 294.796875 65.761719 C 293.761719 65.335938 292.707031 64.957031 291.636719 64.632812 C 290.566406 64.308594 289.480469 64.035156 288.382812 63.816406 C 287.28125 63.597656 286.175781 63.433594 285.0625 63.324219 C 283.945312 63.214844 282.828125 63.160156 281.710938 63.160156 L 230.410156 63.160156 C 230.410156 61.757812 230.339844 60.363281 230.203125 58.96875 C 230.066406 57.574219 229.859375 56.191406 229.589844 54.820312 C 229.316406 53.445312 228.976562 52.089844 228.570312 50.75 C 228.164062 49.410156 227.691406 48.09375 227.15625 46.800781 C 226.621094 45.507812 226.023438 44.242188 225.363281 43.007812 C 224.703125 41.773438 223.984375 40.574219 223.203125 39.410156 C 222.425781 38.246094 221.59375 37.121094 220.707031 36.039062 C 219.816406 34.957031 218.878906 33.921875 217.886719 32.929688 C 216.898438 31.941406 215.863281 31 214.78125 30.113281 C 213.699219 29.226562 212.574219 28.390625 211.410156 27.613281 C 210.246094 26.835938 209.046875 26.117188 207.8125 25.457031 C 206.578125 24.796875 205.3125 24.199219 204.019531 23.664062 C 202.726562 23.128906 201.410156 22.65625 200.070312 22.25 C 198.730469 21.84375 197.371094 21.503906 196 21.230469 C 194.625 20.957031 193.242188 20.753906 191.851562 20.617188 C 190.457031 20.476562 189.058594 20.410156 187.660156 20.410156 Z M 173.410156 63.160156 C 173.410156 62.222656 173.5 61.296875 173.683594 60.378906 C 173.867188 59.460938 174.136719 58.570312 174.492188 57.707031 C 174.851562 56.839844 175.292969 56.019531 175.8125 55.242188 C 176.332031 54.464844 176.921875 53.746094 177.582031 53.082031 C 178.246094 52.421875 178.964844 51.832031 179.742188 51.3125 C 180.519531 50.792969 181.339844 50.351562 182.207031 49.992188 C 183.070312 49.636719 183.960938 49.367188 184.878906 49.183594 C 185.796875 49 186.722656 48.910156 187.660156 48.910156 C 188.59375 48.910156 189.523438 49 190.4375 49.183594 C 191.355469 49.367188 192.25 49.636719 193.113281 49.992188 C 193.976562 50.351562 194.796875 50.792969 195.578125 51.3125 C 196.355469 51.832031 197.074219 52.421875 197.734375 53.082031 C 198.398438 53.746094 198.988281 54.464844 199.507812 55.242188 C 200.027344 56.019531 200.464844 56.839844 200.824219 57.707031 C 201.183594 58.570312 201.453125 59.460938 201.636719 60.378906 C 201.816406 61.296875 201.910156 62.222656 201.910156 63.160156 C 201.910156 64.09375 201.816406 65.023438 201.636719 65.9375 C 201.453125 66.855469 201.183594 67.75 200.824219 68.613281 C 200.464844 69.476562 200.027344 70.296875 199.507812 71.078125 C 198.988281 71.855469 198.398438 72.574219 197.734375 73.234375 C 197.074219 73.898438 196.355469 74.488281 195.578125 75.007812 C 194.796875 75.527344 193.976562 75.964844 193.113281 76.324219 C 192.25 76.683594 191.355469 76.953125 190.4375 77.136719 C 189.523438 77.316406 188.59375 77.410156 187.660156 77.410156 C 186.722656 77.410156 185.796875 77.316406 184.878906 77.136719 C 183.960938 76.953125 183.070312 76.683594 182.207031 76.324219 C 181.339844 75.964844 180.519531 75.527344 179.742188 75.007812 C 178.964844 74.488281 178.246094 73.898438 177.582031 73.234375 C 176.921875 72.574219 176.332031 71.855469 175.8125 71.078125 C 175.292969 70.296875 174.851562 69.476562 174.492188 68.613281 C 174.136719 67.75 173.867188 66.855469 173.683594 65.9375 C 173.5 65.023438 173.410156 64.09375 173.410156 63.160156 Z M 102.160156 162.910156 C 102.160156 161.972656 102.25 161.046875 102.433594 160.128906 C 102.617188 159.210938 102.886719 158.320312 103.242188 157.457031 C 103.601562 156.589844 104.042969 155.769531 104.5625 154.992188 C 105.082031 154.214844 105.671875 153.496094 106.332031 152.832031 C 106.996094 152.171875 107.714844 151.582031 108.492188 151.0625 C 109.269531 150.542969 110.089844 150.101562 110.957031 149.742188 C 111.820312 149.386719 112.710938 149.117188 113.628906 148.933594 C 114.546875 148.75 115.472656 148.660156 116.410156 148.660156 L 258.910156 148.660156 C 259.84375 148.660156 260.773438 148.75 261.6875 148.933594 C 262.605469 149.117188 263.5 149.386719 264.363281 149.742188 C 265.226562 150.101562 266.046875 150.542969 266.828125 151.0625 C 267.605469 151.582031 268.324219 152.171875 268.984375 152.832031 C 269.648438 153.496094 270.238281 154.214844 270.757812 154.992188 C 271.277344 155.769531 271.714844 156.589844 272.074219 157.457031 C 272.433594 158.320312 272.703125 159.210938 272.886719 160.128906 C 273.066406 161.046875 273.160156 161.972656 273.160156 162.910156 C 273.160156 163.84375 273.066406 164.773438 272.886719 165.6875 C 272.703125 166.605469 272.433594 167.5 272.074219 168.363281 C 271.714844 169.226562 271.277344 170.046875 270.757812 170.828125 C 270.238281 171.605469 269.648438 172.324219 268.984375 172.984375 C 268.324219 173.648438 267.605469 174.238281 266.828125 174.757812 C 266.046875 175.277344 265.226562 175.714844 264.363281 176.074219 C 263.5 176.433594 262.605469 176.703125 261.6875 176.886719 C 260.773438 177.066406 259.84375 177.160156 258.910156 177.160156 L 116.410156 177.160156 C 115.472656 177.160156 114.546875 177.066406 113.628906 176.886719 C 112.710938 176.703125 111.820312 176.433594 110.957031 176.074219 C 110.089844 175.714844 109.269531 175.277344 108.492188 174.757812 C 107.714844 174.238281 106.996094 173.648438 106.332031 172.984375 C 105.671875 172.324219 105.082031 171.605469 104.5625 170.828125 C 104.042969 170.046875 103.601562 169.226562 103.242188 168.363281 C 102.886719 167.5 102.617188 166.605469 102.433594 165.6875 C 102.25 164.773438 102.160156 163.84375 102.160156 162.910156 Z M 102.160156 205.660156 C 102.160156 204.722656 102.25 203.796875 102.433594 202.878906 C 102.617188 201.960938 102.886719 201.070312 103.242188 200.207031 C 103.601562 199.339844 104.042969 198.519531 104.5625 197.742188 C 105.082031 196.964844 105.671875 196.246094 106.332031 195.582031 C 106.996094 194.921875 107.714844 194.332031 108.492188 193.8125 C 109.269531 193.292969 110.089844 192.851562 110.957031 192.492188 C 111.820312 192.136719 112.710938 191.867188 113.628906 191.683594 C 114.546875 191.5 115.472656 191.410156 116.410156 191.410156 L 258.910156 191.410156 C 259.84375 191.410156 260.773438 191.5 261.6875 191.683594 C 262.605469 191.867188 263.5 192.136719 264.363281 192.492188 C 265.226562 192.851562 266.046875 193.292969 266.828125 193.8125 C 267.605469 194.332031 268.324219 194.921875 268.984375 195.582031 C 269.648438 196.246094 270.238281 196.964844 270.757812 197.742188 C 271.277344 198.519531 271.714844 199.339844 272.074219 200.207031 C 272.433594 201.070312 272.703125 201.960938 272.886719 202.878906 C 273.066406 203.796875 273.160156 204.722656 273.160156 205.660156 C 273.160156 206.59375 273.066406 207.523438 272.886719 208.4375 C 272.703125 209.355469 272.433594 210.25 272.074219 211.113281 C 271.714844 211.976562 271.277344 212.796875 270.757812 213.578125 C 270.238281 214.355469 269.648438 215.074219 268.984375 215.734375 C 268.324219 216.398438 267.605469 216.988281 266.828125 217.507812 C 266.046875 218.027344 265.226562 218.464844 264.363281 218.824219 C 263.5 219.183594 262.605469 219.453125 261.6875 219.636719 C 260.773438 219.816406 259.84375 219.910156 258.910156 219.910156 L 116.410156 219.910156 C 115.472656 219.910156 114.546875 219.816406 113.628906 219.636719 C 112.710938 219.453125 111.820312 219.183594 110.957031 218.824219 C 110.089844 218.464844 109.269531 218.027344 108.492188 217.507812 C 107.714844 216.988281 106.996094 216.398438 106.332031 215.734375 C 105.671875 215.074219 105.082031 214.355469 104.5625 213.578125 C 104.042969 212.796875 103.601562 211.976562 103.242188 211.113281 C 102.886719 210.25 102.617188 209.355469 102.433594 208.4375 C 102.25 207.523438 102.160156 206.59375 102.160156 205.660156 Z M 102.160156 248.410156 C 102.160156 247.472656 102.25 246.546875 102.433594 245.628906 C 102.617188 244.710938 102.886719 243.820312 103.242188 242.957031 C 103.601562 242.089844 104.042969 241.269531 104.5625 240.492188 C 105.082031 239.714844 105.671875 238.996094 106.332031 238.332031 C 106.996094 237.671875 107.714844 237.082031 108.492188 236.5625 C 109.269531 236.042969 110.089844 235.601562 110.957031 235.242188 C 111.820312 234.886719 112.710938 234.617188 113.628906 234.433594 C 114.546875 234.25 115.472656 234.160156 116.410156 234.160156 L 201.910156 234.160156 C 202.84375 234.160156 203.773438 234.25 204.6875 234.433594 C 205.605469 234.617188 206.5 234.886719 207.363281 235.242188 C 208.226562 235.601562 209.046875 236.042969 209.828125 236.5625 C 210.605469 237.082031 211.324219 237.671875 211.984375 238.332031 C 212.648438 238.996094 213.238281 239.714844 213.757812 240.492188 C 214.277344 241.269531 214.714844 242.089844 215.074219 242.957031 C 215.433594 243.820312 215.703125 244.710938 215.886719 245.628906 C 216.066406 246.546875 216.160156 247.472656 216.160156 248.410156 C 216.160156 249.34375 216.066406 250.273438 215.886719 251.1875 C 215.703125 252.105469 215.433594 253 215.074219 253.863281 C 214.714844 254.726562 214.277344 255.546875 213.757812 256.328125 C 213.238281 257.105469 212.648438 257.824219 211.984375 258.484375 C 211.324219 259.148438 210.605469 259.738281 209.828125 260.257812 C 209.046875 260.777344 208.226562 261.214844 207.363281 261.574219 C 206.5 261.933594 205.605469 262.203125 204.6875 262.386719 C 203.773438 262.566406 202.84375 262.660156 201.910156 262.660156 L 116.410156 262.660156 C 115.472656 262.660156 114.546875 262.566406 113.628906 262.386719 C 112.710938 262.203125 111.820312 261.933594 110.957031 261.574219 C 110.089844 261.214844 109.269531 260.777344 108.492188 260.257812 C 107.714844 259.738281 106.996094 259.148438 106.332031 258.484375 C 105.671875 257.824219 105.082031 257.105469 104.5625 256.328125 C 104.042969 255.546875 103.601562 254.726562 103.242188 253.863281 C 102.886719 253 102.617188 252.105469 102.433594 251.1875 C 102.25 250.273438 102.160156 249.34375 102.160156 248.410156 Z M 102.160156 248.410156 " fill-opacity="1" fill-rule="evenodd"/></g></svg>