<svg xmlns="http://www.w3.org/2000/svg" xmlns:xlink="http://www.w3.org/1999/xlink" width="500" zoomAndPan="magnify" viewBox="0 0 375 374.999991" height="500" preserveAspectRatio="xMidYMid meet" version="1.0"><defs><clipPath id="09464793d4"><path d="M 59 20.410156 L 316 20.410156 L 316 348 L 59 348 Z M 59 20.410156 " clip-rule="nonzero"/></clipPath></defs><g clip-path="url(#09464793d4)"><path fill="#9195b1" d="M 187.496094 20.410156 C 186.097656 20.410156 184.703125 20.476562 183.308594 20.613281 C 181.917969 20.753906 180.535156 20.957031 179.164062 21.230469 C 177.792969 21.503906 176.4375 21.84375 175.097656 22.25 C 173.757812 22.65625 172.445312 23.125 171.152344 23.660156 C 169.859375 24.195312 168.597656 24.792969 167.363281 25.453125 C 166.128906 26.113281 164.929688 26.828125 163.765625 27.605469 C 162.605469 28.382812 161.480469 29.214844 160.402344 30.105469 C 159.320312 30.992188 158.285156 31.929688 157.296875 32.917969 C 156.304688 33.90625 155.367188 34.941406 154.480469 36.023438 C 153.59375 37.105469 152.761719 38.226562 151.984375 39.390625 C 151.207031 40.554688 150.488281 41.75 149.828125 42.984375 C 149.171875 44.21875 148.574219 45.480469 148.039062 46.773438 C 147.503906 48.066406 147.03125 49.382812 146.625 50.71875 C 146.21875 52.058594 145.878906 53.414062 145.605469 54.785156 C 145.335938 56.15625 145.128906 57.539062 144.992188 58.933594 C 144.855469 60.324219 144.785156 61.71875 144.785156 63.117188 L 93.535156 63.117188 C 92.417969 63.117188 91.300781 63.171875 90.1875 63.28125 C 89.074219 63.394531 87.96875 63.554688 86.871094 63.773438 C 85.773438 63.992188 84.6875 64.265625 83.617188 64.589844 C 82.546875 64.914062 81.496094 65.289062 80.460938 65.71875 C 79.425781 66.148438 78.417969 66.625 77.429688 67.152344 C 76.441406 67.679688 75.484375 68.253906 74.554688 68.875 C 73.621094 69.5 72.726562 70.164062 71.859375 70.875 C 70.996094 71.582031 70.167969 72.335938 69.375 73.125 C 68.585938 73.917969 67.832031 74.746094 67.125 75.609375 C 66.414062 76.476562 65.75 77.371094 65.125 78.304688 C 64.503906 79.234375 63.929688 80.191406 63.402344 81.179688 C 62.875 82.167969 62.398438 83.175781 61.96875 84.210938 C 61.539062 85.246094 61.164062 86.296875 60.839844 87.367188 C 60.515625 88.4375 60.242188 89.523438 60.023438 90.621094 C 59.804688 91.71875 59.644531 92.824219 59.53125 93.9375 C 59.421875 95.050781 59.367188 96.167969 59.367188 97.285156 L 59.367188 313.679688 C 59.367188 314.796875 59.421875 315.914062 59.53125 317.027344 C 59.644531 318.140625 59.804688 319.246094 60.023438 320.34375 C 60.242188 321.441406 60.515625 322.523438 60.839844 323.597656 C 61.164062 324.667969 61.539062 325.71875 61.96875 326.753906 C 62.398438 327.785156 62.875 328.796875 63.402344 329.785156 C 63.929688 330.769531 64.503906 331.730469 65.125 332.660156 C 65.75 333.589844 66.414062 334.488281 67.125 335.351562 C 67.832031 336.21875 68.585938 337.046875 69.375 337.835938 C 70.167969 338.628906 70.996094 339.378906 71.859375 340.089844 C 72.726562 340.800781 73.621094 341.464844 74.554688 342.085938 C 75.484375 342.707031 76.441406 343.28125 77.429688 343.808594 C 78.417969 344.339844 79.425781 344.816406 80.460938 345.242188 C 81.496094 345.671875 82.546875 346.050781 83.617188 346.375 C 84.6875 346.699219 85.773438 346.96875 86.871094 347.1875 C 87.96875 347.40625 89.074219 347.570312 90.1875 347.679688 C 91.300781 347.789062 92.417969 347.84375 93.535156 347.84375 L 281.457031 347.84375 C 282.574219 347.84375 283.691406 347.789062 284.804688 347.679688 C 285.917969 347.570312 287.023438 347.40625 288.121094 347.1875 C 289.21875 346.96875 290.300781 346.699219 291.375 346.375 C 292.445312 346.050781 293.496094 345.671875 294.53125 345.242188 C 295.5625 344.816406 296.574219 344.339844 297.5625 343.808594 C 298.546875 343.28125 299.507812 342.707031 300.4375 342.085938 C 301.367188 341.464844 302.265625 340.800781 303.128906 340.089844 C 303.996094 339.378906 304.824219 338.628906 305.613281 337.835938 C 306.40625 337.046875 307.15625 336.21875 307.867188 335.351562 C 308.578125 334.488281 309.242188 333.589844 309.863281 332.660156 C 310.484375 331.730469 311.058594 330.769531 311.585938 329.785156 C 312.117188 328.796875 312.59375 327.785156 313.019531 326.753906 C 313.449219 325.71875 313.828125 324.667969 314.152344 323.597656 C 314.476562 322.523438 314.746094 321.441406 314.964844 320.34375 C 315.183594 319.246094 315.347656 318.140625 315.457031 317.027344 C 315.566406 315.914062 315.621094 314.796875 315.621094 313.679688 L 315.621094 97.285156 C 315.621094 96.167969 315.566406 95.050781 315.457031 93.9375 C 315.347656 92.824219 315.183594 91.71875 314.964844 90.621094 C 314.746094 89.523438 314.476562 88.4375 314.152344 87.367188 C 313.828125 86.296875 313.449219 85.246094 313.019531 84.210938 C 312.59375 83.175781 312.117188 82.167969 311.585938 81.179688 C 311.058594 80.191406 310.484375 79.234375 309.863281 78.304688 C 309.242188 77.371094 308.578125 76.476562 307.867188 75.609375 C 307.15625 74.746094 306.40625 73.917969 305.613281 73.125 C 304.824219 72.335938 303.996094 71.582031 303.128906 70.875 C 302.265625 70.164062 301.367188 69.5 300.4375 68.875 C 299.507812 68.253906 298.546875 67.679688 297.5625 67.152344 C 296.574219 66.625 295.5625 66.148438 294.53125 65.71875 C 293.496094 65.289062 292.445312 64.914062 291.375 64.589844 C 290.300781 64.265625 289.21875 63.992188 288.121094 63.773438 C 287.023438 63.554688 285.917969 63.394531 284.804688 63.28125 C 283.691406 63.171875 282.574219 63.117188 281.457031 63.117188 L 230.203125 63.117188 C 230.203125 61.71875 230.136719 60.324219 230 58.933594 C 229.863281 57.539062 229.65625 56.15625 229.382812 54.785156 C 229.109375 53.414062 228.769531 52.058594 228.367188 50.71875 C 227.960938 49.382812 227.488281 48.066406 226.953125 46.773438 C 226.417969 45.480469 225.820312 44.21875 225.160156 42.984375 C 224.5 41.75 223.785156 40.554688 223.007812 39.390625 C 222.230469 38.226562 221.398438 37.105469 220.511719 36.023438 C 219.621094 34.941406 218.683594 33.90625 217.695312 32.917969 C 216.707031 31.929688 215.671875 30.992188 214.589844 30.105469 C 213.507812 29.214844 212.386719 28.382812 211.222656 27.605469 C 210.058594 26.828125 208.863281 26.113281 207.628906 25.453125 C 206.394531 24.792969 205.132812 24.195312 203.839844 23.660156 C 202.546875 23.125 201.230469 22.65625 199.894531 22.25 C 198.554688 21.84375 197.199219 21.503906 195.828125 21.230469 C 194.457031 20.957031 193.074219 20.753906 191.679688 20.613281 C 190.289062 20.476562 188.894531 20.410156 187.496094 20.410156 Z M 173.257812 63.117188 C 173.257812 62.183594 173.351562 61.257812 173.53125 60.339844 C 173.714844 59.425781 173.984375 58.535156 174.34375 57.671875 C 174.699219 56.808594 175.140625 55.988281 175.660156 55.210938 C 176.175781 54.433594 176.769531 53.710938 177.429688 53.050781 C 178.089844 52.390625 178.808594 51.800781 179.585938 51.28125 C 180.363281 50.761719 181.183594 50.324219 182.046875 49.964844 C 182.910156 49.609375 183.800781 49.339844 184.71875 49.15625 C 185.636719 48.972656 186.5625 48.882812 187.496094 48.882812 C 188.429688 48.882812 189.355469 48.972656 190.273438 49.15625 C 191.191406 49.339844 192.078125 49.609375 192.941406 49.964844 C 193.808594 50.324219 194.628906 50.761719 195.40625 51.28125 C 196.183594 51.800781 196.902344 52.390625 197.5625 53.050781 C 198.222656 53.710938 198.8125 54.433594 199.332031 55.210938 C 199.851562 55.988281 200.289062 56.808594 200.648438 57.671875 C 201.003906 58.535156 201.277344 59.425781 201.457031 60.339844 C 201.640625 61.257812 201.730469 62.183594 201.730469 63.117188 C 201.730469 64.054688 201.640625 64.980469 201.457031 65.894531 C 201.277344 66.8125 201.003906 67.703125 200.648438 68.566406 C 200.289062 69.429688 199.851562 70.25 199.332031 71.027344 C 198.8125 71.804688 198.222656 72.523438 197.5625 73.183594 C 196.902344 73.847656 196.183594 74.4375 195.40625 74.957031 C 194.628906 75.476562 193.808594 75.914062 192.941406 76.269531 C 192.078125 76.628906 191.191406 76.898438 190.273438 77.082031 C 189.355469 77.261719 188.429688 77.355469 187.496094 77.355469 C 186.5625 77.355469 185.636719 77.261719 184.71875 77.082031 C 183.800781 76.898438 182.910156 76.628906 182.046875 76.269531 C 181.183594 75.914062 180.363281 75.476562 179.585938 74.957031 C 178.808594 74.4375 178.089844 73.847656 177.429688 73.183594 C 176.769531 72.523438 176.175781 71.804688 175.660156 71.027344 C 175.140625 70.25 174.699219 69.429688 174.34375 68.566406 C 173.984375 67.703125 173.714844 66.8125 173.53125 65.894531 C 173.351562 64.980469 173.257812 64.054688 173.257812 63.117188 Z M 102.078125 162.773438 C 102.078125 161.839844 102.167969 160.914062 102.351562 159.996094 C 102.535156 159.078125 102.804688 158.1875 103.160156 157.324219 C 103.519531 156.460938 103.957031 155.640625 104.476562 154.863281 C 104.996094 154.085938 105.585938 153.367188 106.246094 152.707031 C 106.90625 152.046875 107.628906 151.453125 108.40625 150.9375 C 109.183594 150.417969 110.003906 149.976562 110.867188 149.621094 C 111.730469 149.261719 112.621094 148.992188 113.535156 148.808594 C 114.453125 148.628906 115.378906 148.535156 116.3125 148.535156 L 258.675781 148.535156 C 259.613281 148.535156 260.539062 148.628906 261.453125 148.808594 C 262.371094 148.992188 263.261719 149.261719 264.125 149.621094 C 264.988281 149.976562 265.808594 150.417969 266.585938 150.9375 C 267.363281 151.453125 268.082031 152.046875 268.742188 152.707031 C 269.40625 153.367188 269.996094 154.085938 270.515625 154.863281 C 271.035156 155.640625 271.472656 156.460938 271.828125 157.324219 C 272.1875 158.1875 272.457031 159.078125 272.640625 159.996094 C 272.820312 160.914062 272.914062 161.839844 272.914062 162.773438 C 272.914062 163.707031 272.820312 164.632812 272.640625 165.550781 C 272.457031 166.46875 272.1875 167.355469 271.828125 168.21875 C 271.472656 169.085938 271.035156 169.90625 270.515625 170.683594 C 269.996094 171.460938 269.40625 172.179688 268.742188 172.839844 C 268.082031 173.5 267.363281 174.089844 266.585938 174.609375 C 265.808594 175.128906 264.988281 175.566406 264.125 175.925781 C 263.261719 176.28125 262.371094 176.554688 261.453125 176.734375 C 260.539062 176.917969 259.613281 177.007812 258.675781 177.007812 L 116.3125 177.007812 C 115.378906 177.007812 114.453125 176.917969 113.535156 176.734375 C 112.621094 176.554688 111.730469 176.28125 110.867188 175.925781 C 110.003906 175.566406 109.183594 175.128906 108.40625 174.609375 C 107.628906 174.089844 106.90625 173.5 106.246094 172.839844 C 105.585938 172.179688 104.996094 171.460938 104.476562 170.683594 C 103.957031 169.90625 103.519531 169.085938 103.160156 168.21875 C 102.804688 167.355469 102.535156 166.46875 102.351562 165.550781 C 102.167969 164.632812 102.078125 163.707031 102.078125 162.773438 Z M 102.078125 205.480469 C 102.078125 204.546875 102.167969 203.621094 102.351562 202.703125 C 102.535156 201.789062 102.804688 200.898438 103.160156 200.035156 C 103.519531 199.171875 103.957031 198.351562 104.476562 197.574219 C 104.996094 196.796875 105.585938 196.074219 106.246094 195.414062 C 106.90625 194.753906 107.628906 194.164062 108.40625 193.644531 C 109.183594 193.125 110.003906 192.6875 110.867188 192.328125 C 111.730469 191.972656 112.621094 191.703125 113.535156 191.519531 C 114.453125 191.335938 115.378906 191.246094 116.3125 191.246094 L 258.675781 191.246094 C 259.613281 191.246094 260.539062 191.335938 261.453125 191.519531 C 262.371094 191.703125 263.261719 191.972656 264.125 192.328125 C 264.988281 192.6875 265.808594 193.125 266.585938 193.644531 C 267.363281 194.164062 268.082031 194.753906 268.742188 195.414062 C 269.40625 196.074219 269.996094 196.796875 270.515625 197.574219 C 271.035156 198.347656 271.472656 199.171875 271.828125 200.035156 C 272.1875 200.898438 272.457031 201.789062 272.640625 202.703125 C 272.820312 203.621094 272.914062 204.546875 272.914062 205.480469 C 272.914062 206.417969 272.820312 207.34375 272.640625 208.257812 C 272.457031 209.175781 272.1875 210.066406 271.828125 210.929688 C 271.472656 211.792969 271.035156 212.613281 270.515625 213.390625 C 269.996094 214.167969 269.40625 214.886719 268.742188 215.546875 C 268.082031 216.210938 267.363281 216.800781 266.585938 217.320312 C 265.808594 217.839844 264.988281 218.277344 264.125 218.632812 C 263.261719 218.992188 262.371094 219.261719 261.453125 219.445312 C 260.539062 219.625 259.613281 219.71875 258.675781 219.71875 L 116.3125 219.71875 C 115.378906 219.71875 114.453125 219.625 113.535156 219.445312 C 112.621094 219.261719 111.730469 218.992188 110.867188 218.632812 C 110.003906 218.277344 109.183594 217.839844 108.40625 217.320312 C 107.628906 216.800781 106.90625 216.210938 106.246094 215.546875 C 105.585938 214.886719 104.996094 214.167969 104.476562 213.390625 C 103.957031 212.613281 103.519531 211.792969 103.160156 210.929688 C 102.804688 210.066406 102.535156 209.175781 102.351562 208.257812 C 102.167969 207.34375 102.078125 206.417969 102.078125 205.480469 Z M 102.078125 248.191406 C 102.078125 247.257812 102.167969 246.332031 102.351562 245.414062 C 102.535156 244.496094 102.804688 243.605469 103.160156 242.742188 C 103.519531 241.878906 103.957031 241.058594 104.476562 240.28125 C 104.996094 239.503906 105.585938 238.785156 106.246094 238.125 C 106.90625 237.464844 107.628906 236.871094 108.40625 236.355469 C 109.183594 235.835938 110.003906 235.394531 110.867188 235.039062 C 111.730469 234.679688 112.621094 234.410156 113.535156 234.226562 C 114.453125 234.046875 115.378906 233.953125 116.3125 233.953125 L 201.730469 233.953125 C 202.667969 233.953125 203.59375 234.046875 204.507812 234.226562 C 205.425781 234.410156 206.316406 234.679688 207.179688 235.039062 C 208.042969 235.394531 208.863281 235.835938 209.640625 236.355469 C 210.417969 236.871094 211.136719 237.464844 211.796875 238.125 C 212.460938 238.785156 213.050781 239.503906 213.570312 240.28125 C 214.089844 241.058594 214.527344 241.878906 214.882812 242.742188 C 215.242188 243.605469 215.511719 244.496094 215.695312 245.414062 C 215.875 246.332031 215.96875 247.257812 215.96875 248.191406 C 215.96875 249.125 215.875 250.050781 215.695312 250.96875 C 215.511719 251.886719 215.242188 252.773438 214.882812 253.636719 C 214.527344 254.503906 214.089844 255.324219 213.570312 256.101562 C 213.050781 256.878906 212.460938 257.597656 211.796875 258.257812 C 211.136719 258.917969 210.417969 259.507812 209.640625 260.027344 C 208.863281 260.546875 208.042969 260.984375 207.179688 261.34375 C 206.316406 261.699219 205.425781 261.972656 204.507812 262.152344 C 203.59375 262.335938 202.667969 262.425781 201.730469 262.425781 L 116.3125 262.425781 C 115.378906 262.425781 114.453125 262.335938 113.535156 262.152344 C 112.621094 261.972656 111.730469 261.699219 110.867188 261.34375 C 110.003906 260.984375 109.183594 260.546875 108.40625 260.027344 C 107.628906 259.507812 106.90625 258.917969 106.246094 258.257812 C 105.585938 257.597656 104.996094 256.878906 104.476562 256.101562 C 103.957031 255.324219 103.519531 254.503906 103.160156 253.636719 C 102.804688 252.773438 102.535156 251.886719 102.351562 250.96875 C 102.167969 250.050781 102.078125 249.125 102.078125 248.191406 Z M 102.078125 248.191406 " fill-opacity="1" fill-rule="evenodd"/></g></svg>