<svg xmlns="http://www.w3.org/2000/svg" xmlns:xlink="http://www.w3.org/1999/xlink" width="500" zoomAndPan="magnify" viewBox="0 0 375 374.999991" height="500" preserveAspectRatio="xMidYMid meet" version="1.2"><g id="b2e0cb335a"><path style=" stroke:none;fill-rule:evenodd;fill:#000000;fill-opacity:1;" d="M 187.5 27.925781 C 275.695312 27.925781 347.300781 99.550781 347.300781 187.769531 C 347.300781 275.992188 275.695312 347.617188 187.5 347.617188 C 99.304688 347.617188 27.699219 275.992188 27.699219 187.769531 C 27.699219 99.550781 99.304688 27.925781 187.5 27.925781 Z M 176.847656 113.175781 L 176.847656 187.769531 C 176.847656 190.59375 177.964844 193.3125 179.960938 195.308594 L 238.558594 253.921875 C 242.714844 258.078125 249.476562 258.078125 253.632812 253.921875 C 257.789062 249.765625 257.789062 243 253.632812 238.84375 L 198.15625 183.363281 L 198.15625 113.175781 C 198.15625 107.289062 193.390625 102.519531 187.503906 102.519531 C 181.617188 102.519531 176.851562 107.289062 176.851562 113.175781 Z M 176.847656 113.175781 "/></g></svg>