<svg xmlns="http://www.w3.org/2000/svg" xmlns:xlink="http://www.w3.org/1999/xlink" width="500" zoomAndPan="magnify" viewBox="0 0 375 374.999991" height="500" preserveAspectRatio="xMidYMid meet" version="1.2"><g id="65e3bafafc"><path style=" stroke:none;fill-rule:evenodd;fill:#9195b1;fill-opacity:1;" d="M 187.5 27.90625 C 275.695312 27.90625 347.300781 99.511719 347.300781 187.710938 C 347.300781 275.90625 275.695312 347.511719 187.5 347.511719 C 99.304688 347.511719 27.699219 275.90625 27.699219 187.710938 C 27.699219 99.511719 99.304688 27.90625 187.5 27.90625 Z M 176.847656 113.136719 L 176.847656 187.710938 C 176.847656 190.53125 177.964844 193.25 179.960938 195.246094 L 238.558594 253.84375 C 242.714844 257.996094 249.476562 257.996094 253.632812 253.84375 C 257.789062 249.6875 257.789062 242.921875 253.632812 238.765625 L 198.15625 183.300781 L 198.15625 113.136719 C 198.15625 107.25 193.390625 102.480469 187.503906 102.480469 C 181.617188 102.480469 176.851562 107.25 176.851562 113.136719 Z M 176.847656 113.136719 "/></g></svg>