<svg xmlns="http://www.w3.org/2000/svg" xmlns:xlink="http://www.w3.org/1999/xlink" width="500" zoomAndPan="magnify" viewBox="0 0 375 374.999991" height="500" preserveAspectRatio="xMidYMid meet" version="1.2"><g id="0aca291e7e"><path style=" stroke:none;fill-rule:evenodd;fill:#9195b1;fill-opacity:1;" d="M 187.457031 21.652344 C 208.378906 21.652344 227.335938 30.136719 241.042969 43.84375 C 254.753906 57.554688 263.238281 76.507812 263.238281 97.433594 C 263.238281 118.328125 254.753906 137.277344 241.039062 151 L 241.003906 151.03125 C 227.285156 164.738281 208.351562 173.21875 187.457031 173.21875 C 166.558594 173.21875 147.617188 164.734375 133.894531 151.019531 L 133.859375 150.984375 C 120.15625 137.261719 111.675781 118.324219 111.675781 97.433594 C 111.675781 76.507812 120.160156 57.554688 133.871094 43.84375 C 147.578125 30.136719 166.535156 21.652344 187.457031 21.652344 Z M 142.027344 188.136719 L 232.902344 188.136719 C 265.835938 188.136719 295.78125 201.613281 317.476562 223.308594 C 339.171875 245.007812 352.640625 274.949219 352.640625 307.886719 C 352.640625 319.695312 347.816406 330.429688 340.042969 338.203125 C 332.269531 345.976562 321.535156 350.800781 309.730469 350.800781 L 65.191406 350.800781 C 53.382812 350.800781 42.644531 345.976562 34.871094 338.203125 L 34.566406 337.875 C 26.980469 330.125 22.273438 319.527344 22.273438 307.890625 C 22.273438 274.953125 35.742188 245.007812 57.445312 223.308594 C 79.140625 201.613281 109.09375 188.136719 142.027344 188.136719 Z M 142.027344 188.136719 "/></g></svg>