<svg xmlns="http://www.w3.org/2000/svg" xmlns:xlink="http://www.w3.org/1999/xlink" width="500" zoomAndPan="magnify" viewBox="0 0 375 374.999991" height="500" preserveAspectRatio="xMidYMid meet" version="1.2"><g id="487e0ceb98"><path style=" stroke:none;fill-rule:evenodd;fill:#000000;fill-opacity:1;" d="M 187.660156 21.648438 C 208.609375 21.648438 227.585938 30.132812 241.308594 43.839844 C 255.03125 57.550781 263.527344 76.503906 263.527344 97.429688 C 263.527344 118.324219 255.03125 137.273438 241.304688 150.992188 L 241.269531 151.027344 C 227.53125 164.734375 208.578125 173.214844 187.660156 173.214844 C 166.742188 173.214844 147.777344 164.730469 134.039062 151.015625 L 134.003906 150.980469 C 120.285156 137.257812 111.796875 118.320312 111.796875 97.429688 C 111.796875 76.503906 120.289062 57.550781 134.015625 43.839844 C 147.738281 30.132812 166.714844 21.648438 187.660156 21.648438 Z M 142.183594 188.132812 L 233.15625 188.132812 C 266.125 188.132812 296.105469 201.605469 317.824219 223.300781 C 339.542969 245 353.03125 274.941406 353.03125 307.878906 C 353.03125 319.691406 348.199219 330.425781 340.417969 338.199219 C 332.632812 345.972656 321.886719 350.796875 310.070312 350.796875 L 65.257812 350.796875 C 53.4375 350.796875 42.6875 345.972656 34.90625 338.199219 L 34.601562 337.871094 C 27.007812 330.121094 22.292969 319.519531 22.292969 307.886719 C 22.292969 274.949219 35.777344 245 57.507812 223.300781 C 79.226562 201.605469 109.207031 188.132812 142.183594 188.132812 Z M 142.183594 188.132812 "/></g></svg>